<svg width="249" height="254" viewBox="0 0 249 254" fill="none" xmlns="http://www.w3.org/2000/svg">
<path d="M0 21.9053C4.72 17.7353 81.88 17.7653 86.14 21.9053H0Z" fill="white"/>
<path d="M235.13 119.005C226.43 119.775 220.42 115.795 214.66 110.535C211.31 107.475 208.1 104.255 205.06 100.895C204.3 100.055 203.95 98.3153 204.2 97.1653C207.23 83.5953 203.11 70.7553 201.16 57.7053C200.42 57.2553 199.69 56.8053 198.95 56.3553C191.35 64.3053 183.75 72.2553 176.15 80.2053C175.53 79.8053 174.92 79.3953 174.3 78.9953C176.84 74.5853 178.77 69.6453 182.05 65.8853C187.77 59.3253 196.25 55.3753 199.77 46.5953C200.81 43.9953 202.65 40.9153 206.9 43.1153C207.8 43.5853 210.43 42.3953 211.16 41.2653C217.33 31.6953 224.89 24.5053 236.8 22.4753C240.6 21.8253 241.52 17.1253 237.65 15.7053C229.5 12.7053 223.3 7.02529 216.26 2.49529C215.44 1.96529 214.29 1.87529 213.28 1.73529C206.9 0.855287 200.29 0.845287 194.05 0.665287C157.77 -0.404713 121.43 0.115287 85.12 0.205287C83.52 0.205287 81.93 1.22529 80.34 1.77529C80.46 2.59529 80.58 3.41529 80.7 4.24529H194.7C193.25 11.2053 191.15 17.0453 191.02 22.9253C190.8 32.3353 186.53 36.9953 177.07 36.5253C174.01 36.3753 170.9 36.9053 167.83 37.2453C167.48 37.2853 167.21 38.0553 166.75 38.6953C168.6 38.9753 170.11 39.2053 172.54 39.5753C167.59 41.8653 163.79 44.0053 159.72 45.3153C158.06 45.8453 155.55 45.0153 153.9 44.0153C150.94 42.2153 148.67 38.8053 145.55 37.8353C128.74 32.6153 111.81 27.7353 94.78 23.2753C91.97 22.5353 88.45 24.4753 85.26 25.1853L85.3 28.0653C88.02 29.1353 90.66 30.4653 93.46 31.2153C110.25 35.7453 127.13 39.9953 143.86 44.7453C146.68 45.5453 148.95 48.2853 151.47 50.1353C151.08 50.6653 150.69 51.1953 150.3 51.7353C149.27 51.2453 148.26 50.6853 147.2 50.2653C139.03 47.0353 134.25 49.0353 130.69 56.7653C128.1 62.3953 125.44 68.0153 122.35 73.3853C119.58 78.1953 114.89 79.5153 109.96 77.3553C104.66 75.0353 98.08 73.5553 98.19 65.6053C98.3 58.1453 97.84 50.6453 98.53 43.2453C99.09 37.3053 95.39 37.1653 91.5 36.1253C87.34 35.0153 85 35.8653 83.55 40.2353C79.62 51.9853 75.54 63.7053 71.07 75.2553C69.17 80.1553 69.72 82.2553 75.31 83.2453C89.38 85.7353 103.35 88.7653 117.37 91.5853C128.37 93.7953 139.22 95.3353 148.11 85.9153C148.82 85.1653 150.25 85.1053 151.35 84.7253C151.89 85.0953 152.43 85.4653 152.97 85.8453C151.25 88.9653 150.25 93.8753 147.69 94.8853C138.9 98.3853 129.8 101.085 119.85 98.7753C103.3 94.9353 86.63 91.5453 69.93 88.4453C64.78 87.4853 64.54 85.1753 65.95 81.2253C71.34 66.0353 76.7 50.8453 82.05 35.6353C82.67 33.8653 83.11 32.0353 83.64 30.2353L81.92 29.4553C80.48 31.9953 78.64 34.3953 77.67 37.1053C73.69 48.2053 70.18 59.4853 65.98 70.5053C65.69 71.2653 61.31 84.3653 61.36 86.3253C61.4 87.9253 62.07 90.3953 63.2 90.9353C67.94 93.1853 72.84 95.2753 77.9 96.6353C87.42 99.1853 97.15 100.995 106.68 103.495C110.27 104.435 113.58 106.455 117.75 108.305C118.69 107.915 120.67 107.095 124.17 105.645C123.38 108.455 123.16 109.415 122.84 110.345C119.6 119.685 116.22 128.985 113.14 138.385C111.8 142.465 111.77 147.085 109.91 150.855C106.18 158.415 101.48 165.495 97.4 172.895C93.57 179.845 88.57 184.905 80.83 187.895C74.19 190.465 68.1 194.625 62.05 198.525C56.34 202.205 51 206.475 45.48 210.455C40.5 214.055 35.38 214.705 29.89 211.415C25.15 208.585 23.33 211.095 22.27 215.615C20.5 223.225 18.33 230.745 16.41 238.325C15.7 241.125 14.64 244.015 14.79 246.815C14.91 249.095 16.58 251.285 17.56 253.515C19.48 251.935 21.83 250.665 23.21 248.705C24.83 246.415 24.94 242.825 26.86 241.025C37.81 230.755 47.64 218.985 62.84 214.235C71.32 211.585 79.63 208.305 87.87 204.965C93.96 202.495 100.87 200.645 105.59 196.455C117.19 186.175 127.64 174.615 138.81 163.835C140.3 162.405 143.42 161.745 145.57 162.075C155.94 163.685 166.23 165.745 176.55 167.665C177.88 167.915 179.2 168.255 180.4 168.525C174.11 184.355 168.08 199.815 161.74 215.145C160.77 217.495 158.64 219.725 156.47 221.135C150.99 224.715 148.71 231.905 152.82 234.725C159.63 239.395 166.56 243.935 173.69 248.105C179.37 251.425 187.42 250.245 189.13 248.765C184.96 243.085 180.59 237.515 176.9 231.525C175.33 228.975 173.78 225.095 174.61 222.615C177.16 215.015 180.37 207.525 184.25 200.505C190.66 188.925 198.02 177.865 204.56 166.345C209.12 158.315 209.08 157.295 201.7 151.935C192.35 145.135 182.39 139.165 172.68 132.855C170.69 131.555 168.62 130.365 166.49 129.055C167.91 126.235 169 124.085 170.49 121.125C175.02 124.395 179.26 126.945 182.88 130.195C189.62 136.225 195.5 136.005 201.67 128.645C198.78 124.785 195.54 121.935 190.16 121.475C184.44 120.985 173.59 111.745 175 108.795C177.92 102.675 181.85 97.0453 186 90.1553C187.08 92.6153 187.64 93.4653 187.83 94.3953C191.25 111.025 201.09 121.375 217.74 125.325C220.92 126.075 224.03 127.465 226.92 129.025C236.73 134.355 240.03 133.745 248.24 123.265C243.5 121.635 239.17 118.705 235.14 119.055L235.13 119.005Z" fill="white"/>
</svg>
