<svg width="753" height="254" viewBox="0 0 753 254" fill="none" xmlns="http://www.w3.org/2000/svg">
<g clip-path="url(#clip0_101_859)">
<path d="M607.21 169.96C600.13 173.53 592.19 178.98 583.4 181.46C577.52 183.12 570.2 181.43 563.98 179.64C556.26 177.42 551.16 171.31 550.89 163.17C550.6 154.36 551.64 145.48 552.45 136.66C553.92 120.6 555.55 104.55 557.32 88.52C557.86 83.6 558.64 78.63 560.08 73.91C563.03 64.24 574.64 58.9 586.88 61.09C597.64 63.02 606.55 68.22 613.83 76.43C621.18 59.68 627.94 55.03 643.71 55.66C657.08 56.19 667.86 65.06 673.31 79.33C680.78 98.91 679.3 118.94 675.87 138.78C673.99 149.65 670.67 160.61 665.96 170.58C658.01 187.42 633.87 193.56 618.37 183.05C613.44 179.7 610.3 173.71 607.19 169.95L607.21 169.96ZM660.81 115.38C659.1 105.9 657.89 96.29 655.49 86.99C654.02 81.27 649.9 77.37 642.99 78.24C636.07 79.11 633.66 83.81 632.98 89.82C630.85 108.73 628.7 127.63 626.96 146.58C626.56 151.01 627.16 155.76 628.4 160.05C630.75 168.2 640.03 170.27 646.13 164.3C647.58 162.88 648.7 161.06 649.77 159.31C657.96 145.85 659.27 130.86 660.8 115.38H660.81ZM604.85 114.79C603.89 105.48 604.05 95.65 598.17 87.18C594.97 82.57 590.59 80.96 585.18 82.07C580.11 83.11 578.17 86.78 577.6 91.46C576.64 99.24 575.7 107.03 574.8 114.82C573.3 127.95 571.22 141.06 570.57 154.23C570.14 163.03 577.67 166.96 585.61 162.87C588.08 161.6 590.35 159.47 592.06 157.24C601.56 144.82 603.2 130.01 604.85 114.79Z" fill="white"/>
<path d="M131.78 55.74C136.45 54.6 141.39 53 146.45 52.41C148.11 52.21 150.78 54.21 151.81 55.91C164.74 77.37 177.46 98.96 190.25 120.51C190.54 121 191.01 121.39 192.95 121.64C191.12 100.44 189.28 79.24 187.35 56.88C193.5 57.67 199.37 58.2 205.12 59.33C206.26 59.55 207.59 61.99 207.74 63.52C210.71 94.21 214.61 124.86 212.23 155.82C211.41 166.46 211.47 166.46 200.87 169.08C197.87 169.82 194.9 170.64 191.97 171.4C181.79 150.02 171.73 128.88 161.67 107.74C161.12 107.93 160.57 108.13 160.02 108.32C160.2 130.78 160.8 153.29 151.44 175.76C121.91 177.23 91.96 178.72 61.04 180.26C62.75 172.81 64.16 166.65 65.88 159.16C79.05 159.16 92.48 159.24 105.91 159.13C114 159.07 122.08 158.53 130.17 158.56C134.95 158.58 137.68 156.92 137.72 151.93C137.87 134.59 138.86 117.21 137.88 99.93C137.06 85.35 133.96 70.9 131.78 55.75V55.74Z" fill="white"/>
<path d="M687.63 53.77C697.21 52.01 706.18 49.15 715.21 48.96C732.52 48.6 745.54 60.58 749.88 78.07C754.19 95.44 752.78 112.77 749.25 129.81C746.85 141.41 743.1 153.03 738.02 163.73C728.71 183.36 711.9 192.93 690.44 194.61C688.64 194.75 686.81 194.46 684.26 194.34C686.96 147.95 691.46 101.99 687.63 53.77ZM709.28 74.6601C708.45 104.56 707.63 134.54 706.77 165.55C709.06 163.91 710.31 163.17 711.38 162.24C727.97 147.77 737.58 105.23 728.81 85.18C725.38 77.33 718.52 73.5001 709.28 74.6601Z" fill="white"/>
<path d="M67.67 84.28C65.33 70.72 72.56 57.99 84.4 54.4C97.72 50.36 113.22 57.3 118.84 70.79C121.82 77.95 123.74 85.73 124.95 93.41C127.55 109.94 129.39 126.6 131.72 144.62C125.73 145.49 119.16 146.43 112.59 147.42C110.85 147.69 109.06 147.95 107.42 148.55C93.03 153.81 79.06 150.49 71.53 139.93C63.09 128.1 63.4 106.91 72.29 96.72C77.34 90.93 83.95 88.27 91.54 88.02C95.44 87.89 99.35 88 104.9 88C102.86 83.01 101.74 78.65 99.43 75.05C97.06 71.35 89.88 72.1 89.35 76.19C87.79 88.07 79.67 85.27 72.39 84.87C70.78 84.78 69.18 84.48 67.68 84.28H67.67ZM98.63 107.38C89.31 107.32 86.52 110.16 86.56 119.66C86.6 127.44 89.68 132.12 94.82 132.16C101.28 132.22 107.25 124.25 107.4 115.37C107.52 107.94 106.97 107.43 98.63 107.38Z" fill="white"/>
<path d="M4.32002 48.3H55.26C56.15 55.1 57.03 61.7701 57.99 69.1101H24.36V108.15C31.12 108.15 38.11 108.44 45.05 108.05C49.7 107.79 51.37 109.42 51.34 113.96C51.19 132.72 53.99 128.59 37.35 129.07C32.85 129.2 28.34 129.09 23.76 129.09C22.93 146.12 22.12 162.56 21.3 179.42H0.310023C0.310023 135.94 -1.66998 92.33 4.32002 48.3Z" fill="white"/>
<path d="M493.99 71.27C509.08 68.88 522.96 66.66 536.86 64.56C537.89 64.41 539.63 64.89 540.07 65.64C543.28 71.07 546.24 76.65 549.94 83.37C538.79 84.44 529.24 85.36 520.01 86.24C520.6 97.55 521.15 108.19 521.72 119.26H545.18C544.59 125.2 544.05 130.63 543.43 136.76C536.46 136.76 529.88 137.09 523.35 136.64C519.17 136.36 517.64 137.77 516.6 141.69C513.84 152.01 510.55 162.19 507.38 172.7C500.68 171.11 494.9 169.74 488.77 168.28C497.08 136.57 508.28 105.19 493.99 71.26V71.27Z" fill="white"/>
<path d="M279.18 117C274.16 112.54 267.81 109.54 261.98 106.03C256.16 102.53 249.77 99.79 244.46 95.65C239.64 91.9 239.17 85.66 241.09 80.23C241.82 78.18 245.81 76.16 248.36 76.09C254.31 75.93 258.2 79.58 260.5 85.08C261.1 86.52 262.65 88.51 263.88 88.6C269.34 88.98 274.84 88.77 280.82 88.77C279.85 85.51 279.27 81.81 278.14 79.74C276.81 77.32 273.09 73.1 270.91 71.4C264.77 66.6 252.82 60.56 242.04 59.61C230.75 58.62 222.4 65.22 220.79 75.97C218.07 94.15 227.64 110.91 244.76 117.96C249.55 119.93 254.45 121.66 259.14 123.83C266.7 127.34 269.16 132.12 268.22 140.31C267.49 146.65 262.76 148.83 257.59 150.08C253.04 151.18 247.47 152.94 244.71 147.59C242.65 143.59 240.14 143.62 236.76 144.02C233.67 144.38 230.57 144.86 227.47 144.89C223.69 144.93 223.03 146.9 223.36 150.12C224.3 159.35 231.77 165.83 242.31 166.38C253.69 166.97 263.9 163.11 273.74 157.98C290.88 149.05 293.63 129.84 279.18 116.99V117Z" fill="white"/>
<path d="M237.58 21.9201C242.3 17.7501 319.46 17.7801 323.72 21.9201H237.58Z" fill="white"/>
<path d="M472.71 119.02C464.01 119.79 458 115.81 452.24 110.55C448.89 107.49 445.68 104.27 442.64 100.91C441.88 100.07 441.53 98.3301 441.78 97.1801C444.81 83.6101 440.69 70.7701 438.74 57.7201C438 57.2701 437.27 56.8201 436.53 56.3701C428.93 64.3201 421.33 72.2701 413.73 80.2201C413.11 79.8201 412.5 79.4101 411.88 79.0101C414.42 74.6001 416.35 69.6601 419.63 65.9001C425.35 59.3401 433.83 55.3901 437.35 46.6101C438.39 44.0101 440.23 40.9301 444.48 43.1301C445.38 43.6001 448.01 42.4101 448.74 41.2801C454.91 31.7101 462.47 24.5201 474.38 22.4901C478.18 21.8401 479.1 17.1401 475.23 15.7201C467.08 12.7201 460.88 7.04006 453.84 2.51006C453.02 1.98006 451.87 1.89006 450.86 1.75006C444.48 0.870057 437.87 0.860057 431.63 0.680057C395.35 -0.389943 359.01 0.130057 322.7 0.220057C321.1 0.220057 319.51 1.24006 317.92 1.79006C318.04 2.61006 318.16 3.43006 318.28 4.26006H432.28C430.83 11.2201 428.73 17.0601 428.6 22.9401C428.38 32.3501 424.11 37.0101 414.65 36.5401C411.59 36.3901 408.48 36.9201 405.41 37.2601C405.06 37.3001 404.79 38.0701 404.33 38.7101C406.18 38.9901 407.69 39.2201 410.12 39.5901C405.17 41.8801 401.37 44.0201 397.3 45.3301C395.64 45.8601 393.13 45.0301 391.48 44.0301C388.52 42.2301 386.25 38.8201 383.13 37.8501C366.32 32.6301 349.39 27.7501 332.36 23.2901C329.55 22.5501 326.03 24.4901 322.84 25.2001L322.88 28.0801C325.6 29.1501 328.24 30.4801 331.04 31.2301C347.83 35.7601 364.71 40.0101 381.44 44.7601C384.26 45.5601 386.53 48.3001 389.05 50.1501C388.66 50.6801 388.27 51.2101 387.88 51.7501C386.85 51.2601 385.84 50.7001 384.78 50.2801C376.61 47.0501 371.83 49.0501 368.27 56.7801C365.68 62.4101 363.02 68.0301 359.93 73.4001C357.16 78.2101 352.47 79.5301 347.54 77.3701C342.24 75.0501 335.66 73.5701 335.77 65.6201C335.88 58.1601 335.42 50.6601 336.11 43.2601C336.67 37.3201 332.97 37.1801 329.08 36.1401C324.92 35.0301 322.58 35.8801 321.13 40.2501C317.2 52.0001 313.12 63.7201 308.65 75.2701C306.75 80.1701 307.3 82.2701 312.89 83.2601C326.96 85.7501 340.93 88.7801 354.95 91.6001C365.95 93.8101 376.8 95.3501 385.69 85.9301C386.4 85.1801 387.83 85.1201 388.93 84.7401C389.47 85.1101 390.01 85.4801 390.55 85.8601C388.83 88.9801 387.83 93.8901 385.27 94.9001C376.48 98.4001 367.38 101.1 357.43 98.7901C340.88 94.9501 324.21 91.5601 307.51 88.4601C302.36 87.5001 302.12 85.1901 303.53 81.2401C308.92 66.0501 314.28 50.8601 319.63 35.6501C320.25 33.8801 320.69 32.0501 321.22 30.2501L319.5 29.4701C318.06 32.0101 316.22 34.4101 315.25 37.1201C311.27 48.2201 307.76 59.5001 303.56 70.5201C303.27 71.2801 298.89 84.3801 298.94 86.3401C298.98 87.9401 299.65 90.4101 300.78 90.9501C305.52 93.2001 310.42 95.2901 315.48 96.6501C325 99.2001 334.73 101.01 344.26 103.51C347.85 104.45 351.16 106.47 355.33 108.32C356.27 107.93 358.25 107.11 361.75 105.66C360.96 108.47 360.74 109.43 360.42 110.36C357.18 119.7 353.8 129 350.72 138.4C349.38 142.48 349.35 147.1 347.49 150.87C343.76 158.43 339.06 165.51 334.98 172.91C331.15 179.86 326.15 184.92 318.41 187.91C311.77 190.48 305.68 194.64 299.63 198.54C293.92 202.22 288.58 206.49 283.06 210.47C278.08 214.07 272.96 214.72 267.47 211.43C262.73 208.6 260.91 211.11 259.85 215.63C258.08 223.24 255.91 230.76 253.99 238.34C253.28 241.14 252.22 244.03 252.37 246.83C252.49 249.11 254.16 251.3 255.14 253.53C257.06 251.95 259.41 250.68 260.79 248.72C262.41 246.43 262.52 242.84 264.44 241.04C275.39 230.77 285.22 219 300.42 214.25C308.9 211.6 317.21 208.32 325.45 204.98C331.54 202.51 338.45 200.66 343.17 196.47C354.77 186.19 365.22 174.63 376.39 163.85C377.88 162.42 381 161.76 383.15 162.09C393.52 163.7 403.81 165.76 414.13 167.68C415.46 167.93 416.78 168.27 417.98 168.54C411.69 184.37 405.66 199.83 399.32 215.16C398.35 217.51 396.22 219.74 394.05 221.15C388.57 224.73 386.29 231.92 390.4 234.74C397.21 239.41 404.14 243.95 411.27 248.12C416.95 251.44 425 250.26 426.71 248.78C422.54 243.1 418.17 237.53 414.48 231.54C412.91 228.99 411.36 225.11 412.19 222.63C414.74 215.03 417.95 207.54 421.83 200.52C428.24 188.94 435.6 177.88 442.14 166.36C446.7 158.33 446.66 157.31 439.28 151.95C429.93 145.15 419.97 139.18 410.26 132.87C408.27 131.57 406.2 130.38 404.07 129.07C405.49 126.25 406.58 124.1 408.07 121.14C412.6 124.41 416.84 126.96 420.46 130.21C427.2 136.24 433.08 136.02 439.25 128.66C436.36 124.8 433.12 121.95 427.74 121.49C422.02 121 411.17 111.76 412.58 108.81C415.5 102.69 419.43 97.0601 423.58 90.1701C424.66 92.6301 425.22 93.4801 425.41 94.4101C428.83 111.04 438.67 121.39 455.32 125.34C458.5 126.09 461.61 127.48 464.5 129.04C474.31 134.37 477.61 133.76 485.82 123.28C481.08 121.65 476.75 118.72 472.72 119.07L472.71 119.02Z" fill="white"/>
</g>
<defs>
<clipPath id="clip0_101_859">
<rect width="752.55" height="253.47" fill="white"/>
</clipPath>
</defs>
</svg>
