<svg width="80" height="80" viewBox="0 0 80 80" fill="none" xmlns="http://www.w3.org/2000/svg">
<path d="M0.810547 69.7297V60.2703H19.7295V79.1892H0.810547V69.7297ZM17.0268 69.7297V62.973H3.51325V76.4865H17.0268V69.7297ZM6.21595 69.7297V65.6757H14.3241V73.7838H6.21595V69.7297ZM25.1349 77.8378V76.4865H22.4322V71.0811H25.1349V62.973H27.8376V60.2703H22.4322V57.5676H11.6214V54.8648H14.3241V52.1621H8.91866V57.5676H6.21595V54.8648H0.810547V52.1621H6.21595V46.7567H3.51325V49.4594H0.810547V44.054H6.21595V46.7567H8.91866V49.4594H11.6214V46.7567H14.3241V49.4594H19.7295V46.7567H17.0268V44.054H8.91866V41.3513H17.0268V38.6486H8.91866V35.9459H6.21595V38.6486H0.810547V30.5405H3.51325V33.2432H19.7295V30.5405H17.0268V27.8378H11.6214V30.5405H8.91866V27.8378H3.51325V22.4324H8.91866V27.8378H11.6214V25.1351H17.0268V22.4324H19.7295V25.1351H17.0268V27.8378H19.7295V30.5405H22.4322V25.1351H25.1349V22.4324H22.4322V14.3243H27.8376V17.027H30.5403V19.7297H27.8376V22.4324H30.5403V38.6486H25.1349V35.9459H22.4322V38.6486H19.7295V41.3513H17.0268V44.054H19.7295V46.7567H22.4322V49.4594H27.8376V46.7567H25.1349V44.054H22.4322V41.3513H27.8376V46.7567H30.5403V41.3513H33.243V46.7567H35.9457V38.6486H38.6484V35.9459H41.3511V38.6486H38.6484V41.3513H41.3511V44.054H49.4592V41.3513H46.7565V38.6486H44.0538V33.2432H41.3511V30.5405H44.0538V27.8378H46.7565V25.1351H44.0538V22.4324H41.3511V27.8378H38.6484V25.1351H35.9457V27.8378H33.243V25.1351H35.9457V22.4324H33.243V14.3243H30.5403V11.6216H33.243V14.3243H35.9457V3.51349H38.6484V8.9189H44.0538V6.2162H41.3511V0.810791H46.7565V3.51349H44.0538V6.2162H49.4592V3.51349H52.1619V0.810791H57.5673V8.9189H52.1619V6.2162H49.4592V11.6216H52.1619V19.7297H54.8646V17.027H57.5673V30.5405H62.9727V27.8378H60.27V22.4324H65.6754V30.5405H71.0808V27.8378H68.3781V22.4324H71.0808V27.8378H73.7835V25.1351H79.1889V30.5405H76.4862V27.8378H73.7835V30.5405H71.0808V38.6486H73.7835V41.3513H71.0808V44.054H65.6754V46.7567H62.9727V49.4594H57.5673V46.7567H54.8646V44.054H52.1619V49.4594H54.8646V52.1621H62.9727V54.8648H68.3781V52.1621H65.6754V49.4594H68.3781V46.7567H71.0808V49.4594H73.7835V52.1621H76.4862V46.7567H73.7835V44.054H79.1889V52.1621H76.4862V57.5676H79.1889V62.973H76.4862V71.0811H79.1889V73.7838H71.0808V79.1892H62.9727V76.4865H68.3781V73.7838H62.9727V68.3784H60.27V73.7838H57.5673V76.4865H60.27V79.1892H54.8646V71.0811H52.1619V76.4865H49.4592V73.7838H46.7565V62.973H49.4592V71.0811H52.1619V62.973H54.8646V57.5676H52.1619V54.8648H49.4592V52.1621H52.1619V49.4594H49.4592V46.7567H46.7565V57.5676H49.4592V60.2703H44.0538V65.6757H41.3511V71.0811H44.0538V73.7838H41.3511V76.4865H46.7565V79.1892H41.3511V76.4865H38.6484V73.7838H35.9457V79.1892H25.1349V77.8378ZM33.243 73.7838V71.0811H35.9457V62.973H30.5403V65.6757H33.243V68.3784H27.8376V71.0811H25.1349V73.7838H27.8376V76.4865H33.243V73.7838ZM71.0808 71.0811V68.3784H73.7835V62.973H76.4862V60.2703H73.7835V52.1621H71.0808V60.2703H73.7835V62.973H71.0808V65.6757H68.3781V73.7838H71.0808V71.0811ZM57.5673 69.7297V68.3784H54.8646V71.0811H57.5673V69.7297ZM41.3511 64.3243V62.973H38.6484V65.6757H41.3511V64.3243ZM65.6754 61.6216V57.5676H57.5673V65.6757H65.6754V61.6216ZM60.27 61.6216V60.2703H62.9727V62.973H60.27V61.6216ZM38.6484 58.9189V57.5676H44.0538V54.8648H38.6484V52.1621H35.9457V54.8648H38.6484V57.5676H33.243V54.8648H30.5403V57.5676H27.8376V54.8648H25.1349V52.1621H22.4322V49.4594H19.7295V52.1621H17.0268V54.8648H19.7295V52.1621H22.4322V54.8648H25.1349V57.5676H27.8376V60.2703H38.6484V58.9189ZM30.5403 50.8108V49.4594H27.8376V52.1621H30.5403V50.8108ZM44.0538 49.4594V46.7567H38.6484V49.4594H41.3511V52.1621H44.0538V49.4594ZM60.27 45.4054V44.054H57.5673V46.7567H60.27V45.4054ZM65.6754 42.7027V41.3513H68.3781V33.2432H65.6754V35.9459H62.9727V38.6486H60.27V35.9459H54.8646V33.2432H52.1619V30.5405H54.8646V22.4324H52.1619V19.7297H49.4592V17.027H46.7565V19.7297H44.0538V11.6216H46.7565V14.3243H49.4592V11.6216H46.7565V8.9189H44.0538V11.6216H41.3511V19.7297H44.0538V22.4324H46.7565V19.7297H49.4592V27.8378H46.7565V30.5405H44.0538V33.2432H46.7565V38.6486H49.4592V35.9459H54.8646V38.6486H57.5673V41.3513H62.9727V44.054H65.6754V42.7027ZM62.9727 40V38.6486H65.6754V41.3513H62.9727V40ZM19.7295 37.2973V35.9459H22.4322V33.2432H19.7295V35.9459H17.0268V38.6486H19.7295V37.2973ZM27.8376 31.8919V30.5405H25.1349V33.2432H27.8376V31.8919ZM27.8376 18.3784V17.027H25.1349V19.7297H27.8376V18.3784ZM38.6484 17.027V14.3243H35.9457V19.7297H38.6484V17.027ZM54.8646 4.86485V3.51349H52.1619V6.2162H54.8646V4.86485ZM76.4862 77.8378V76.4865H79.1889V79.1892H76.4862V77.8378ZM76.4862 38.6486V35.9459H73.7835V33.2432H76.4862V35.9459H79.1889V41.3513H76.4862V38.6486ZM0.810547 10.2703V0.810791H19.7295V19.7297H0.810547V10.2703ZM17.0268 10.2703V3.51349H3.51325V17.027H17.0268V10.2703ZM6.21595 10.2703V6.2162H14.3241V14.3243H6.21595V10.2703ZM60.27 10.2703V0.810791H79.1889V19.7297H60.27V10.2703ZM76.4862 10.2703V3.51349H62.9727V17.027H76.4862V10.2703ZM65.6754 10.2703V6.2162H73.7835V14.3243H65.6754V10.2703ZM22.4322 10.2703V8.9189H25.1349V11.6216H22.4322V10.2703ZM27.8376 7.56755V6.2162H25.1349V0.810791H27.8376V3.51349H30.5403V0.810791H33.243V3.51349H30.5403V8.9189H27.8376V7.56755Z" fill="black"/>
</svg>
